<?xml version="1.0" encoding="UTF-8" standalone="no"?>
<svg width="120px" height="120px" viewBox="0 0 120 120" version="1.1" xmlns="http://www.w3.org/2000/svg" xmlns:xlink="http://www.w3.org/1999/xlink">
    <!-- Generator: Sketch 3.7.2 (28276) - http://www.bohemiancoding.com/sketch -->
    <title>icon-large-location</title>
    <desc>Created with Sketch.</desc>
    <defs></defs>
    <g id="Page-1" stroke="none" stroke-width="1" fill="none" fill-rule="evenodd">
        <g id="icon-large-location" fill="#1168F4">
            <g id="Pin---1" transform="translate(19.000000, 11.000000)">
                <path d="M70.0556098,12.375 L69.8507317,12.16875 C62.2218726,4.44923542 51.8512995,0.109115432 41.0346341,0.109115432 C30.2179687,0.109115432 19.8473957,4.44923542 12.2185366,12.16875 L11.9931707,12.375 C-3.9484267,28.4736272 -3.9484267,54.5213728 11.9931707,70.62 L41.0243902,99 L70.0556098,70.516875 C85.9292477,54.4302396 85.9292477,28.4616354 70.0556098,12.375 L70.0556098,12.375 Z M67.1668293,67.60875 L41.0243902,93.163125 L14.8819512,67.60875 C0.542681136,53.1214172 0.542681136,29.6879578 14.8819512,15.200625 L15.1073171,14.97375 C21.9711053,8.02756632 31.3021477,4.1221637 41.0346341,4.1221637 C50.7671206,4.1221637 60.098163,8.02756632 66.9619512,14.97375 L67.1668293,15.18 C81.5197142,29.6697177 81.5197142,53.1190323 67.1668293,67.60875 L67.1668293,67.60875 Z" id="Shape"></path>
                <path d="M41.0243902,26.8125 C34.2353289,26.8125 28.7317073,32.3529762 28.7317073,39.1875 C28.7317073,46.0220238 34.2353289,51.5625 41.0243902,51.5625 C47.8134516,51.5625 53.3170732,46.0220238 53.3170732,39.1875 C53.3170732,32.3529762 47.8134516,26.8125 41.0243902,26.8125 L41.0243902,26.8125 Z M41.0243902,47.4375 C36.4983494,47.4375 32.8292683,43.7438492 32.8292683,39.1875 C32.8292683,34.6311508 36.4983494,30.9375 41.0243902,30.9375 C45.5504311,30.9375 49.2195122,34.6311508 49.2195122,39.1875 C49.2195122,43.7438492 45.5504311,47.4375 41.0243902,47.4375 L41.0243902,47.4375 Z" id="Shape"></path>
            </g>
        </g>
    </g>
</svg>