<?xml version="1.0" encoding="UTF-8" standalone="no"?>
<svg width="40px" height="40px" viewBox="0 0 40 40" version="1.1" xmlns="http://www.w3.org/2000/svg" xmlns:xlink="http://www.w3.org/1999/xlink">
    <!-- Generator: Sketch 3.7.2 (28276) - http://www.bohemiancoding.com/sketch -->
    <title>icon-small-friendly</title>
    <desc>Created with Sketch.</desc>
    <defs></defs>
    <g id="Page-1" stroke="none" stroke-width="1" fill="none" fill-rule="evenodd">
        <g id="icon-small-friendly" stroke="#1168F4" stroke-width="2">
            <g id="Group-7" transform="translate(5.000000, 5.000000)">
                <path d="M15,23.9413178 C18.1022574,23.9413178 20.7701094,22.1890856 22,19.6666667 L8,19.6666667 C9.22989061,22.1890856 11.8977426,23.9413178 15,23.9413178 L15,23.9413178 Z" id="Shape" stroke-linecap="round" stroke-linejoin="round"></path>
                <path d="M15,-3.55271368e-15 C6.72865215,-3.55271368e-15 5.32907052e-15,6.72838442 5.32907052e-15,14.9994032 C5.32907052e-15,23.2704219 6.72865215,30 15,30 C23.2713479,30 30,23.2704219 30,14.9994032 C30,6.72838442 23.2713479,-3.55271368e-15 15,-3.55271368e-15 L15,-3.55271368e-15 Z" id="Shape"></path>
                <circle id="Oval" cx="9.97346667" cy="11.3009333" r="2.16666667"></circle>
                <circle id="Oval" cx="20.1830667" cy="11.3009333" r="2.16666667"></circle>
            </g>
        </g>
    </g>
</svg>