<?xml version="1.0" encoding="UTF-8" standalone="no"?>
<svg width="40px" height="40px" viewBox="0 0 40 40" version="1.1" xmlns="http://www.w3.org/2000/svg" xmlns:xlink="http://www.w3.org/1999/xlink">
    <!-- Generator: Sketch 3.7.2 (28276) - http://www.bohemiancoding.com/sketch -->
    <title>icon-small-crowd-empty</title>
    <desc>Created with Sketch.</desc>
    <defs></defs>
    <g id="Page-1" stroke="none" stroke-width="1" fill="none" fill-rule="evenodd">
        <g id="icon-small-crowd-empty" stroke="#1168F4" stroke-width="2">
            <g id="Group" transform="translate(16.000000, 7.000000)">
                <path d="M5.32256889,1.66122667 C5.32256889,2.57873778 4.57885333,3.85990222 3.66134222,3.85990222 C2.74383111,3.85990222 2,2.57873778 2,1.66122667 C2,0.743715556 2.74371556,1.77635684e-15 3.66122667,1.77635684e-15 C4.57873778,1.77635684e-15 5.32256889,0.743831111 5.32256889,1.66122667 L5.32256889,1.66122667 Z" id="Shape-Copy"></path>
                <path d="M1.5214946,26.6915858 L0.865023488,15.2900658 C0.855432377,15.0513281 0.0887212657,15.362057 0.0802857102,15.1356836 C-0.232176512,6.77766584 0.462774599,6.1277814 0.541236821,6.06203029 C0.633681266,6.03614584 1.39195682,6.01569251 1.61879238,6.00136362 C1.92570793,5.98206584 2.19009904,6.16949695 2.33096127,6.44267029 C2.83050793,7.41160362 4.51241904,7.41160362 5.01196571,6.44267029 C5.15282793,6.16949695 5.4173346,5.98206584 5.7241346,6.00136362 C5.95108571,6.01557695 6.70924571,6.03614584 6.80169015,6.06203029 C6.88015238,6.1277814 7.57510349,6.77766584 7.26287238,15.1357992 C7.25443682,15.3621725 6.48772571,15.0513281 6.4781346,15.2901814 L5.82097015,26.6917014" id="Shape-Copy-2"></path>
            </g>
        </g>
    </g>
</svg>