<svg id="Layer_2" data-name="Layer 2" xmlns="http://www.w3.org/2000/svg" viewBox="0 0 358.87 127.49"><defs><style>.cls-1{fill:#1168F3;}</style></defs><title> logo1</title><path class="cls-1" d="M4493.86,1471.77s49.22-100.44,65.15-106.31" transform="translate(-4487.69 -1348.8)"/><path class="cls-1" d="M4493.85,1476.29a4.52,4.52,0,0,1-4.05-6.51c0.12-.25,12.52-25.51,26.7-51.15,29.4-53.16,37.79-56.25,40.94-57.41a4.52,4.52,0,0,1,3.12,8.48c-2,.72-10.38,6.71-36.16,53.3-14.08,25.45-26.37,50.51-26.5,50.76A4.52,4.52,0,0,1,4493.85,1476.29Z" transform="translate(-4487.69 -1348.8)"/><path class="cls-1" d="M4514.91,1438.32c-8.43,0-19.78-3.56-25.09-6.88a4.52,4.52,0,0,1,4.79-7.66c4.07,2.55,13.83,5.5,20.31,5.5,18.94,0,41-6.26,58.95-16.74,17.8-10.39,28.43-23.28,28.43-34.5,0-6.3-3.56-11.07-10.88-14.57-7.69-3.68-19.15-5.63-33.16-5.63-17.91,0-43.64,9.78-51.94,19.74a4.52,4.52,0,0,1-6.94-5.79c6.86-8.23,19.62-13.82,26.62-16.43,11.21-4.17,23-6.56,32.27-6.56,33.73,0,53.08,10.66,53.08,29.23,0,14.69-12,30.11-32.91,42.31C4559.12,1431.6,4535.38,1438.32,4514.91,1438.32Z" transform="translate(-4487.69 -1348.8)"/><path class="cls-1" d="M4575.78,1472.27a4.65,4.65,0,0,1-.57,0c-7.36-.92-14-8.45-20.35-23a156.51,156.51,0,0,1-6.93-19.71,4.52,4.52,0,0,1,8.73-2.33,149.84,149.84,0,0,0,6.52,18.53c6.81,15.62,11.79,17.39,13.15,17.56A4.52,4.52,0,0,1,4575.78,1472.27Z" transform="translate(-4487.69 -1348.8)"/><path class="cls-1" d="M4596.61,1460.4c-6,0-12.06-4.89-12.06-14.22,0-10,3.89-20.56,10.68-29s15.3-13.38,23-13.38c7.36,0,12.3,6.27,12.3,15.6a4.52,4.52,0,1,1-9,0c0-.27,0-6.56-3.27-6.56-10.52,0-24.61,16.49-24.61,33.36,0,3.1,1.22,5.19,3,5.19,2.89,0,9.37-5.4,12.83-11.71a4.52,4.52,0,1,1,7.93,4.34C4613.64,1450.81,4604.73,1460.4,4596.61,1460.4Z" transform="translate(-4487.69 -1348.8)"/><path class="cls-1" d="M4618.57,1459.74c-6.36,0-11-5.16-11-12.27,0-6.4,7-18.44,19.11-37.07,1.4-2.15,2.61-4,3.37-5.24a4.52,4.52,0,0,1,7.69,4.75c-0.81,1.32-2,3.22-3.48,5.42-4.83,7.43-17.65,27.17-17.65,32.14,0,0.76.14,3.23,1.94,3.23,5.64,0,14-10.85,19.51-18l0.8-1a4.52,4.52,0,1,1,7.16,5.52l-0.79,1C4637.47,1448.29,4628.66,1459.74,4618.57,1459.74Z" transform="translate(-4487.69 -1348.8)"/><path class="cls-1" d="M4645.86,1457.37c-6.87,0-11.49-4.82-11.49-12,0-8.33,17-37,22.16-45.64a4.52,4.52,0,0,1,7.74,4.67c-12.8,21.18-20.79,37.76-20.86,41,0,2.69,1.08,2.94,2.4,2.94,1-.17,4.88-2.5,11.7-11.27A103.65,103.65,0,0,0,4669,1419a4.52,4.52,0,0,1,8.25,3.7c-2.39,5.34-7.75,13.75-13,20.46C4654.2,1455.89,4648.94,1457.37,4645.86,1457.37Z" transform="translate(-4487.69 -1348.8)"/><path class="cls-1" d="M4671.83,1455.28c-6.22,0-10.74-4.94-10.74-11.74,0-7.06,5.17-20.56,15.8-41.26,8.74-17,18.79-34.26,24-43a4.52,4.52,0,1,1,7.77,4.62c-23.41,39.33-38.54,70.6-38.54,79.66,0,1,.22,2.7,1.7,2.7s4.83-2.15,8.31-6.87a4.52,4.52,0,0,1,7.28,5.36C4684.51,1448.67,4678.63,1455.28,4671.83,1455.28Z" transform="translate(-4487.69 -1348.8)"/><circle class="cls-1" cx="4668.41" cy="1384.76" r="6.23" transform="translate(-4099.52 2357.85) rotate(-45)"/><path class="cls-1" d="M4723.06,1453.3v-80.62a2.61,2.61,0,0,1,.46-1.49,3.32,3.32,0,0,1,1.26-1.1,3.82,3.82,0,0,1,1.78-.41h37a4.16,4.16,0,0,1,1.86.41,3.27,3.27,0,0,1,1.3,1.1,2.61,2.61,0,0,1,.46,1.49v8.88a2.86,2.86,0,0,1-.49,1.56,3.6,3.6,0,0,1-1.33,1.22,3.69,3.69,0,0,1-1.81.46h-25.37v19.13h19.38a3.27,3.27,0,0,1,2.38.85,3,3,0,0,1,.88,2.28v8.75a2.67,2.67,0,0,1-.89,2.06,3.36,3.36,0,0,1-2.36.81h-19.37v34.63a2.85,2.85,0,0,1-.45,1.53,3.34,3.34,0,0,1-1.22,1.16,3.4,3.4,0,0,1-1.7.44h-8.25a3.68,3.68,0,0,1-2.51-.86A2.86,2.86,0,0,1,4723.06,1453.3Z" transform="translate(-4487.69 -1348.8)"/><path class="cls-1" d="M4787.81,1453.92V1418.3a21.85,21.85,0,0,0-1.75-6l-14.5-37.87a3.58,3.58,0,0,1-.37-1.62,3.35,3.35,0,0,1,.56-1.86,4,4,0,0,1,1.55-1.37,4.57,4.57,0,0,1,2.14-.51h7.75a4.67,4.67,0,0,1,4.25,2.63l8.38,24.88a0.85,0.85,0,0,0,.63.25,0.7,0.7,0,0,0,.38-0.25l8.63-24.87a3.68,3.68,0,0,1,1.45-1.87,3.94,3.94,0,0,1,2.3-.75h7.88a4.44,4.44,0,0,1,2.17.54,4,4,0,0,1,1.53,1.44,3.59,3.59,0,0,1,.55,1.9,4.31,4.31,0,0,1-.1.8q-0.1.5-.15,0.7l-14.75,37.88a26.37,26.37,0,0,0-1.5,6v35.63a2.88,2.88,0,0,1-.55,1.7,3.81,3.81,0,0,1-1.48,1.22,4.45,4.45,0,0,1-2,.45h-9.12a4.12,4.12,0,0,1-1.89-.45,3.83,3.83,0,0,1-1.44-1.24A2.9,2.9,0,0,1,4787.81,1453.92Z" transform="translate(-4487.69 -1348.8)"/><path class="cls-1" d="M4830.93,1453.67V1372.8a3.36,3.36,0,0,1,.92-2.4,3.07,3.07,0,0,1,2.33-1h9.25a2.85,2.85,0,0,1,1.53.45,3.36,3.36,0,0,1,1.16,1.22,3.41,3.41,0,0,1,.44,1.7v80.88a3.4,3.4,0,0,1-.44,1.7,3.36,3.36,0,0,1-1.16,1.22,2.85,2.85,0,0,1-1.53.45h-9.25a3.07,3.07,0,0,1-2.33-1A3.36,3.36,0,0,1,4830.93,1453.67Z" transform="translate(-4487.69 -1348.8)"/></svg>