<svg id="Layer_2" data-name="Layer 2" xmlns="http://www.w3.org/2000/svg" viewBox="0 0 190.64 74.38"><defs><style>.cls-1{fill:#4068f4;}</style></defs><title>logo2</title><path class="cls-1" d="M3413.59,1243.66c9.39,0,15.23,5.77,15.23,13.22a11.9,11.9,0,0,1-7.26,11.27l15.16,20.54-0.32.32h-8.88l-0.32-.32-13.93-18.59h-4.79v18.59l-0.32.32h-6.87l-0.32-.32V1244l0.32-.32h12.31Zm-5.12,18.92h5.12c4.21,0,6.67-2.07,6.67-5.7s-2.46-5.64-6.67-5.64h-5.12v11.34Z" transform="translate(-3400.96 -1242.69)"/><path class="cls-1" d="M3442.33,1259.53a17.47,17.47,0,0,1,8.1-1.94c7.13,0,13.09,4.21,13.09,13v18.14l-0.32.32h-6.93l-0.32-.32v-1a13.61,13.61,0,0,1-7.45,2.27c-5.25,0-10.69-2.59-10.69-9,0-8.55,8.88-11.21,18.14-11.73,0-2.72-2.27-4.86-5.83-4.86s-6.74,1.17-10.62,3.76l-0.32-.32Zm13.61,15.48c-6.8.32-10.37,2.33-10.37,5.18,0,2,1.62,3,3.82,3a12.72,12.72,0,0,0,6.54-1.94V1275Z" transform="translate(-3400.96 -1242.69)"/><path class="cls-1" d="M3474.15,1245.6l4.73,4.66v0.65l-4.73,4.73h-0.65l-4.73-4.73v-0.65l4.73-4.66h0.65Zm3.11,13,0.32,0.32v29.8l-0.32.32h-6.87l-0.32-.32v-29.8l0.32-.32h6.87Z" transform="translate(-3400.96 -1242.69)"/><path class="cls-1" d="M3401.33,1298.12l0.32-.32h138.56l0.32,0.32v6.13l-0.32.32H3401.66l-0.32-.32v-6.13Z" transform="translate(-3400.96 -1242.69)"/><path class="cls-1" d="M3401.33,1310.62l0.32-.32H3590v6.77H3401.66l-0.32-.32v-6.13Z" transform="translate(-3400.96 -1242.69)"/><path class="cls-1" d="M3564.83,1298.12l0.32-.32H3590v6.77h-24.88l-0.32-.32v-6.13Z" transform="translate(-3400.96 -1242.69)"/><path class="cls-1" d="M3491.29,1243.66l0.32,0.32v33.5c0,3.63,1.62,5.25,4.08,5.25a8,8,0,0,0,6-2.59l0.32,0.32V1288a13.59,13.59,0,0,1-6.41,1.94c-7.45,0-11.47-4.6-11.47-12V1244l0.32-.32h6.87Z" transform="translate(-3400.96 -1242.69)"/><path class="cls-1" d="M3523.82,1258.56v-1.43c0-8.68,4.79-14.45,13.22-14.45a12.88,12.88,0,0,1,6,1.3v7.58l-0.32.32a7.9,7.9,0,0,0-5.38-1.94c-4,0-6,2.59-6,7.52v1.1h11.34l0.32,0.32v6.93l-0.32.32H3531.4v22.55l-0.32.32h-6.93l-0.32-.32v-22.55H3519l-0.32-.32v-7l0.32-.26h4.86Z" transform="translate(-3400.96 -1242.69)"/><path class="cls-1" d="M3553,1258.56l0.65,0.32,8.42,18.4,8.42-18.4,0.65-.32h7.9l0.32,0.32-18.72,37.58c-2.59,4.54-6.35,8.1-14.38,8.1l-0.32-.45V1298l0.32-.32a8.33,8.33,0,0,0,8.1-4.92l3.63-7.39-13.22-26.43,0.32-.32h7.9Z" transform="translate(-3400.96 -1242.69)"/><path class="cls-1" d="M3586.87,1245.6l4.73,4.66v0.65l-4.73,4.73h-0.65l-4.73-4.73v-0.65l4.73-4.66h0.65Zm3.11,13,0.32,0.32v29.8l-0.32.32h-6.87l-0.32-.32v-29.8l0.32-.32H3590Z" transform="translate(-3400.96 -1242.69)"/></svg>