<svg width="40" height="40" viewBox="0 0 40 40" xmlns="http://www.w3.org/2000/svg"><title>icon-small-temp-cold</title><g transform="translate(4 4)" fill="none" fill-rule="evenodd"><path d="M22.825 6.188h8.113M11.688 23.65c-.963.963-1.513 2.2-1.513 3.575 0 2.75 2.2 5.087 5.087 5.087 2.888 0 5.088-2.2 5.088-5.087 0-1.513-.688-3.025-1.788-3.85V4.262c0-1.924-1.512-3.3-3.3-3.3-2.2-.137-3.575 1.513-3.575 3.163V23.65z" stroke="#1168F4" stroke-width="2"/><ellipse stroke="#1168F4" stroke-width="2" cx="15.125" cy="27.5" rx=".963" ry=".963"/><path d="M15.125 26.538V23M8.113 6.188h3.575M8.113 13.063h3.575M8.113 19.938h3.575" stroke="#1168F4" stroke-width="2"/><path d="M0 0h33v33H0z"/></g></svg>