<svg width="40" height="40" viewBox="0 0 40 40" xmlns="http://www.w3.org/2000/svg"><title>icon-small-toilet</title><g fill="none" fill-rule="evenodd"><path d="M25.762 34.872v-7.535h3.678l-2.858-7.159.563-2.977c.163-4.978-.227-4.695-.303-4.761-.2-.06-.41-.093-.63-.093l-1.745 1.884-1.745-1.884c-.22 0-.43.033-.631.093-.076.066-.466-.217-.303 4.761l.563 2.977-2.858 7.16h3.678v7.534M12.588 34.974V24.815M14.72 7.71c0 1.015-.822 2.432-1.837 2.432-1.015 0-1.838-1.417-1.838-2.432a1.838 1.838 0 1 1 3.676 0zM26.212 7.988c0 1.015-.782 2.433-1.745 2.433-.964 0-1.745-1.418-1.745-2.433s.781-1.837 1.745-1.837c.963 0 1.745.822 1.745 1.837zM10.504 34.974l-.726-12.613c-.01-.264-.859.08-.868-.17-.346-9.247.423-9.966.51-10.039.102-.028.941-.05 1.192-.067.34-.021.632.186.788.488.552 1.072 2.413 1.072 2.966 0 .156-.302.448-.51.788-.488.25.016 1.09.039 1.192.067.086.073.855.792.51 10.038-.01.25-.858-.093-.868.171l-.727 12.613" stroke="#1168F4" stroke-width="2"/><path d="M3.302 5h30.68v30.68H3.302z"/></g></svg>