<svg width="40" height="40" viewBox="0 0 40 40" xmlns="http://www.w3.org/2000/svg"><title>icon-small-clean</title><g fill="none" fill-rule="evenodd"><g stroke="#1168F4" stroke-width="2"><path d="M24.814 14.907s3.466 5.132 3.714 12.773c.145 4.478-.196 6.271-.517 7.145a1.704 1.704 0 0 1-1.607 1.097h-6.2a1.72 1.72 0 0 1-1.691-1.384c-.524-2.669-.614-8.12 2.091-12.164 3.151-4.71 1.56-7.467 1.56-7.467M24.814 12.136s.47-2.156 2.053-3.211c1.126-.751-.918-2.339-4.171-2.336-3.13.003-5.548-.003-5.548-.003V9.3s3.78.5 5.015 2.837h2.65zM14.96 7.15l-.965.163v1.26l.966.164M19.846 10.121s.477 2.904-1.626 4.56M19.403 24.67h8.856M28.396 33.04H18.28M10.654 7.943l-.596.362"/><path d="M7.648 9.768L5.84 10.865" stroke-dasharray="0.2526499927043915,1.010650038719177"/><path d="M4.635 11.597l-.596.362"/><g><path d="M10.654 7.943h-.697M4.539 7.943H3.84"/></g><g><path d="M10.654 7.943l-.596-.362"/><path d="M7.648 6.118L5.84 5.021" stroke-dasharray="0.2526499927043915,1.010650038719177"/><path d="M4.635 4.29l-.596-.362"/></g></g><path d="M.02 3.049h33.477v33.477H.02z"/></g></svg>