<?xml version="1.0" encoding="UTF-8" standalone="no"?>
<svg width="40px" height="40px" viewBox="0 0 40 40" version="1.1" xmlns="http://www.w3.org/2000/svg" xmlns:xlink="http://www.w3.org/1999/xlink">
    <!-- Generator: Sketch 3.7.2 (28276) - http://www.bohemiancoding.com/sketch -->
    <title>icon-small-search</title>
    <desc>Created with Sketch.</desc>
    <defs></defs>
    <g id="Page-1" stroke="none" stroke-width="1" fill="none" fill-rule="evenodd">
        <g id="icon-small-search" fill="#1168F4">
            <path d="M17.4973193,23.9803312 C18.8757166,23.979699 20.2177736,23.5381867 21.3273193,22.7203312 L27.5873193,28.9803312 L28.9973193,27.5703312 L22.7373193,21.3103312 C24.5042574,18.883478 24.3762322,15.5615269 22.4277548,13.2778627 C20.4792774,10.9941984 17.2188945,10.3448504 14.5441579,11.707741 C11.8694213,13.0706316 10.4784292,16.0900504 11.1807427,19.0086875 C11.8830563,21.9273246 14.4953738,23.9834244 17.4973193,23.9803312 L17.4973193,23.9803312 Z M17.4973193,12.9803312 C19.9826007,12.9803312 21.9973193,14.9950499 21.9973193,17.4803312 C21.9973193,19.9656126 19.9826007,21.9803312 17.4973193,21.9803312 C15.012038,21.9803312 12.9973193,19.9656126 12.9973193,17.4803312 C12.9973193,14.9950499 15.012038,12.9803312 17.4973193,12.9803312 L17.4973193,12.9803312 Z" id="Shape"></path>
        </g>
    </g>
</svg>