<?xml version="1.0" encoding="utf-8"?>
<!-- Generator: Adobe Illustrator 19.2.1, SVG Export Plug-In . SVG Version: 6.00 Build 0)  -->
<svg version="1.1" id="Layer_1" xmlns="http://www.w3.org/2000/svg" xmlns:xlink="http://www.w3.org/1999/xlink" x="0px" y="0px"
	 viewBox="0 0 120 120" style="enable-background:new 0 0 120 120;" xml:space="preserve">
<style type="text/css">
  @keyframes train-bounce {
    0% {
      -webkit-transform: translateY(0);
              transform: translateY(0);
    }
    50% {
      -webkit-transform: translateY(-5%);
              transform: translateY(-5%);
    }
    100% {
      -webkit-transform: translateY(0);
              transform: translateY(0);
    }
  }

  @keyframes track-scale {
    0% {
      -webkit-transform: scaleX(1);
              transform: scaleX(1);
    }
    50% {
      -webkit-transform: scaleX(.9);
              transform: scaleX(.9);
    }
    100% {
      -webkit-transform: scaleX(1);
              transform: scaleX(1);
    }
  }

	.blue-fill {
    fill: #1168F4;
  }

  #train {
    -webkit-transform-origin: 60px 60px;
            transform-origin: 60px 60px;
    -webkit-animation: train-bounce .75s ease-in-out infinite;
            animation: train-bounce .75s ease-in-out infinite;
  }

  #track {
    -webkit-transform-origin: 60px 60px;
            transform-origin: 60px 60px;
    -webkit-animation: track-scale .75s ease-in-out infinite;
            animation: track-scale .75s ease-in-out infinite;
  }
</style>
<g id="train">
	<path id="Shape" class="blue-fill" d="M94.9,83.3l-6.7-47.9C87,27.7,80.5,22,72.8,22H48.5c-7.7,0-14.3,5.7-15.4,13.4l-6.9,47.9
		c-0.5,3.8,0.6,7.6,3.1,10.5s6.1,4.5,9.9,4.4H82c3.8,0,7.3-1.6,9.8-4.5C94.3,90.9,95.4,87.1,94.9,83.3L94.9,83.3z M89.2,91.5
		c-1.8,2.1-4.4,3.3-7.2,3.3H39.3c-2.8,0-5.4-1.2-7.2-3.3s-2.6-4.9-2.2-7.7l6.8-47.9c0.9-6,5.9-10.4,11.9-10.4h24.3
		c6,0,11.1,4.4,11.9,10.4l6.9,47.9C91.9,86.6,91.1,89.4,89.2,91.5L89.2,91.5z"/>
	<path id="Shape_1_" class="blue-fill" d="M70.3,28.9H51c-4.2,0-7.8,3.1-8.5,7.2l-2.8,17h41.8l-2.8-17C78.1,32,74.5,28.9,70.3,28.9
		L70.3,28.9z M43.8,49.7l2.1-13c0.4-2.5,2.6-4.4,5.2-4.3h19.2c2.5,0,4.7,1.8,5.2,4.3l2.1,13H43.8L43.8,49.7z"/>
	<path id="Shape_2_" class="blue-fill" d="M60.7,67c-4.7,0-8.6,3.9-8.6,8.7c0,4.8,3.8,8.7,8.6,8.7c4.7,0,8.6-3.9,8.6-8.7
		C69.2,70.9,65.4,67,60.7,67L60.7,67z M60.7,80.9c-2.8,0-5.2-2.3-5.2-5.2c0-2.9,2.3-5.2,5.2-5.2c2.8,0,5.2,2.3,5.2,5.2
		C65.8,78.6,63.5,80.9,60.7,80.9L60.7,80.9z"/>
</g>
<rect id="track" x="45.2" y="101.7" class="blue-fill" width="30.9" height="3.5"/>
</svg>
