<svg width="40" height="40" viewBox="0 0 40 40" xmlns="http://www.w3.org/2000/svg"><title>icon-small-temp-hot</title><g transform="translate(4 4)" fill="none" fill-rule="evenodd"><ellipse stroke="#1168F4" stroke-width="2" cx="14.982" cy="27.235" rx=".934" ry=".934"/><path d="M14.97 26.3V5M8.027 6.124h3.503M8.027 12.928h3.503M8.027 19.732h3.503M26.536 2.054v8.115M22.56 5.784h8.115M11.53 23.396a4.971 4.971 0 0 0-1.538 3.597 4.99 4.99 0 1 0 8.157-3.855V4.157c-.024-1.96-1.515-3.31-3.298-3.31-1.916 0-3.321 1.602-3.321 3.252v19.297z" stroke="#1168F4" stroke-width="2"/><path d="M.03.048h32.66v32.66H.03z"/></g></svg>