<svg width="40" height="40" viewBox="0 0 40 40" xmlns="http://www.w3.org/2000/svg"><title>icon-small-crowd-empty</title><g stroke="#1168F4" stroke-width="2" fill="none" fill-rule="evenodd"><path d="M21.323 8.661c0 .918-.744 2.199-1.662 2.199C18.744 10.86 18 9.579 18 8.66a1.661 1.661 0 1 1 3.323 0zM17.521 33.692l-.656-11.402c-.01-.239-.776.072-.785-.154-.312-8.358.383-9.008.461-9.074.093-.026.851-.046 1.078-.06.307-.02.571.167.712.44.5.97 2.181.97 2.681 0 .14-.273.405-.46.712-.44.227.014.985.034 1.078.06.078.066.773.716.46 9.074-.008.226-.774-.085-.784.154l-.657 11.402"/></g></svg>