<svg width="40" height="40" viewBox="0 0 40 40" xmlns="http://www.w3.org/2000/svg"><title>icon-small-crowd-ok</title><g stroke="#1168F4" stroke-width="2" fill="none" fill-rule="evenodd"><path d="M21.64 8.872c0 .917-.745 2.198-1.662 2.198-.918 0-1.661-1.28-1.661-2.198a1.661 1.661 0 1 1 3.322 0zM17.828 33.517l-.657-11.401c-.01-.24-.776.072-.784-.155-.313-8.358.382-9.008.46-9.073.093-.026.851-.047 1.078-.061.307-.02.572.168.712.441.5.97 2.182.97 2.681 0 .141-.273.406-.46.713-.441.226.014.985.035 1.077.06.079.066.774.716.461 9.074-.008.227-.775-.084-.784.155l-.658 11.401M12.395 8.872c0 .917-.744 2.198-1.662 2.198-.917 0-1.66-1.28-1.66-2.198a1.661 1.661 0 1 1 3.322 0zM8.583 33.517l-.656-11.401c-.01-.24-.776.072-.785-.155-.312-8.358.383-9.008.461-9.073.093-.026.85-.047 1.078-.061.307-.02.571.168.712.441.5.97 2.181.97 2.68 0 .142-.273.406-.46.713-.441.227.014.985.035 1.078.06.078.066.773.716.46 9.074-.008.227-.774-.084-.784.155l-.657 11.401M30.884 8.872c0 .917-.744 2.198-1.662 2.198-.917 0-1.661-1.28-1.661-2.198a1.661 1.661 0 1 1 3.323 0zM27.072 33.517l-.656-11.401c-.01-.24-.776.072-.785-.155-.312-8.358.383-9.008.461-9.073.093-.026.85-.047 1.078-.061.307-.02.571.168.712.441.5.97 2.181.97 2.68 0 .142-.273.406-.46.713-.441.227.014.985.035 1.078.06.078.066.773.716.46 9.074-.008.227-.774-.084-.784.155l-.657 11.401"/></g></svg>