<svg width="120" height="120" viewBox="0 0 120 120" xmlns="http://www.w3.org/2000/svg"><title>icon-large-train</title><g fill="#1168F4" fill-rule="evenodd"><path d="M94.863 83.317L88.13 35.393C87.043 27.689 80.49 21.974 72.778 22H48.531c-7.713-.026-14.264 5.69-15.353 13.393L26.31 83.317c-.537 3.776.59 7.6 3.082 10.468a12.898 12.898 0 0 0 9.884 4.45h42.76a12.9 12.9 0 0 0 9.79-4.503 13.144 13.144 0 0 0 3.038-10.415zM89.23 91.46a9.478 9.478 0 0 1-7.195 3.31h-42.76a9.495 9.495 0 0 1-7.192-3.316 9.675 9.675 0 0 1-2.236-7.652l6.766-47.941c.854-5.968 5.924-10.397 11.9-10.396h24.265c5.984-.01 11.064 4.421 11.918 10.396l6.87 47.924a9.656 9.656 0 0 1-2.336 7.675z"/><path d="M70.288 28.93H51.021c-4.198.002-7.778 3.065-8.466 7.243l-2.817 17.014h41.833l-2.816-17.014c-.689-4.178-4.27-7.24-8.467-7.243zM43.791 49.722l2.147-12.978c.415-2.535 2.605-4.383 5.151-4.348h19.2c2.546-.035 4.736 1.813 5.151 4.348l2.078 12.978H43.791zM60.655 67.048c-4.743 0-8.587 3.878-8.587 8.663 0 4.784 3.844 8.663 8.587 8.663 4.742 0 8.586-3.879 8.586-8.663 0-4.785-3.844-8.663-8.586-8.663zm0 13.86c-2.846 0-5.152-2.327-5.152-5.197 0-2.871 2.306-5.198 5.152-5.198 2.845 0 5.151 2.327 5.151 5.198 0 2.87-2.306 5.197-5.151 5.197zM45.199 101.7H76.11v3.465H45.199z"/></g></svg>