<svg id="Layer_1" xmlns="http://www.w3.org/2000/svg" viewBox="0 0 120 120"><style>@keyframes train-bounce{0%,to{-webkit-transform:translateY(0);transform:translateY(0)}50%{-webkit-transform:translateY(-5%);transform:translateY(-5%)}}@keyframes track-scale{0%,to{-webkit-transform:scaleX(1);transform:scaleX(1)}50%{-webkit-transform:scaleX(.9);transform:scaleX(.9)}}.blue-fill{fill:#1168f4}#track,#train{-webkit-transform-origin:60px 60px;transform-origin:60px 60px;-webkit-animation:train-bounce .75s ease-in-out infinite;animation:train-bounce .75s ease-in-out infinite}#track{-webkit-animation:track-scale .75s ease-in-out infinite;animation:track-scale .75s ease-in-out infinite}</style><g id="train"><path id="Shape" class="blue-fill" d="M94.9 83.3l-6.7-47.9C87 27.7 80.5 22 72.8 22H48.5c-7.7 0-14.3 5.7-15.4 13.4l-6.9 47.9c-.5 3.8.6 7.6 3.1 10.5s6.1 4.5 9.9 4.4H82c3.8 0 7.3-1.6 9.8-4.5 2.5-2.8 3.6-6.6 3.1-10.4zm-5.7 8.2c-1.8 2.1-4.4 3.3-7.2 3.3H39.3c-2.8 0-5.4-1.2-7.2-3.3s-2.6-4.9-2.2-7.7l6.8-47.9c.9-6 5.9-10.4 11.9-10.4h24.3c6 0 11.1 4.4 11.9 10.4l6.9 47.9c.2 2.8-.6 5.6-2.5 7.7z"/><path id="Shape_1_" class="blue-fill" d="M70.3 28.9H51c-4.2 0-7.8 3.1-8.5 7.2l-2.8 17h41.8l-2.8-17c-.6-4.1-4.2-7.2-8.4-7.2zM43.8 49.7l2.1-13c.4-2.5 2.6-4.4 5.2-4.3h19.2c2.5 0 4.7 1.8 5.2 4.3l2.1 13H43.8z"/><path id="Shape_2_" class="blue-fill" d="M60.7 67c-4.7 0-8.6 3.9-8.6 8.7 0 4.8 3.8 8.7 8.6 8.7 4.7 0 8.6-3.9 8.6-8.7-.1-4.8-3.9-8.7-8.6-8.7zm0 13.9c-2.8 0-5.2-2.3-5.2-5.2 0-2.9 2.3-5.2 5.2-5.2 2.8 0 5.2 2.3 5.2 5.2-.1 2.9-2.4 5.2-5.2 5.2z"/></g><path id="track" class="blue-fill" d="M45.2 101.7h30.9v3.5H45.2z"/></svg>