<?xml version="1.0" encoding="UTF-8" standalone="no"?>
<svg width="40px" height="40px" viewBox="0 0 40 40" version="1.1" xmlns="http://www.w3.org/2000/svg" xmlns:xlink="http://www.w3.org/1999/xlink">
    <!-- Generator: Sketch 3.7.2 (28276) - http://www.bohemiancoding.com/sketch -->
    <title>icon-small-toilet</title>
    <desc>Created with Sketch.</desc>
    <defs></defs>
    <g id="Page-1" stroke="none" stroke-width="1" fill="none" fill-rule="evenodd">
        <g id="icon-small-toilet">
            <g id="Group-3" transform="translate(3.000000, 5.000000)">
                <path d="M22.7617979,29.8717278 L22.7617979,22.3373856 L26.4397402,22.3373856 L23.582499,15.178367 L24.1448454,12.2013443 C24.3079629,7.22331959 23.9178103,7.50596289 23.8423876,7.43961649 C23.6420701,7.38042887 23.4319093,7.34680825 23.2115216,7.34680825 L21.4665732,9.23096907 L19.7216247,7.34680825 C19.5012371,7.34680825 19.2912041,7.38030103 19.0907588,7.43961649 C19.0153361,7.50609072 18.6251835,7.22331959 18.788301,12.2013443 L19.3506474,15.178367 L16.4934062,22.3373856 L20.1713485,22.3373856 L20.1713485,29.8717278" id="Shape" stroke="#1168F4" stroke-width="2"></path>
                <path d="M9.58762887,29.9741237 L9.58782062,19.8154557" id="Shape" stroke="#1168F4" stroke-width="2"></path>
                <path d="M11.7205567,2.70984742 C11.7205567,3.72485773 10.8978103,5.14216495 9.8828,5.14216495 C8.86778969,5.14216495 8.04491546,3.72485773 8.04491546,2.70984742 C8.04491546,1.69483711 8.86766186,0.872090722 9.88267216,0.872090722 C10.8976825,0.872090722 11.7205567,1.69496495 11.7205567,2.70984742 L11.7205567,2.70984742 Z" id="Shape" stroke="#1168F4" stroke-width="2"></path>
                <path d="M23.2115216,2.9884 C23.2115216,4.00341031 22.4303216,5.42071753 21.4665732,5.42071753 C20.5028247,5.42071753 19.7216247,4.00341031 19.7216247,2.9884 C19.7216247,1.97338969 20.5029526,1.15051546 21.466701,1.15051546 C22.4304495,1.15051546 23.2115216,1.97338969 23.2115216,2.9884 L23.2115216,2.9884 Z" id="Shape" stroke="#1168F4" stroke-width="2"></path>
                <path d="M7.50430103,29.9741237 L6.7780701,17.3610227 C6.76745979,17.0969155 5.91927423,17.4406639 5.90994227,17.1902351 C5.56427629,7.94405361 6.33307629,7.22510928 6.41987629,7.15237113 C6.52214433,7.12373608 7.36099794,7.10110928 7.61193814,7.08525773 C7.95146804,7.06390928 8.24395464,7.27125773 8.39978557,7.57345979 C8.95241649,8.6453567 10.8130557,8.6453567 11.3656866,7.57345979 C11.5215175,7.27125773 11.814132,7.06390928 12.153534,7.08525773 C12.4046021,7.10098144 13.2433278,7.12373608 13.3455959,7.15237113 C13.4323959,7.22510928 14.2011959,7.94405361 13.8557856,17.1903629 C13.8464536,17.4407918 12.998268,17.0969155 12.9876577,17.3611505 L12.2606598,29.9742515" id="Shape" stroke="#1168F4" stroke-width="2"></path>
                <rect id="Rectangle-path" x="0.302202062" y="0.000255670103" width="30.6804124" height="30.6804124"></rect>
            </g>
        </g>
    </g>
</svg>