<?xml version="1.0" encoding="UTF-8" standalone="no"?>
<svg width="40px" height="40px" viewBox="0 0 40 40" version="1.1" xmlns="http://www.w3.org/2000/svg" xmlns:xlink="http://www.w3.org/1999/xlink">
    <!-- Generator: Sketch 3.7.2 (28276) - http://www.bohemiancoding.com/sketch -->
    <title>icon-small-crowded</title>
    <desc>Created with Sketch.</desc>
    <defs></defs>
    <g id="Page-1" stroke="none" stroke-width="1" fill="none" fill-rule="evenodd">
        <g id="icon-small-crowded" stroke-width="2" stroke="#1168F4">
            <g id="Group-2" transform="translate(-2.000000, 6.000000)">
                <g id="Group">
                    <path d="M23.6391556,1.87176889 C23.6391556,2.78928 22.89544,4.07044444 21.9779289,4.07044444 C21.0604178,4.07044444 20.3165867,2.78928 20.3165867,1.87176889 C20.3165867,0.954257778 21.0603022,0.210542222 21.9778133,0.210542222 C22.8953244,0.210542222 23.6391556,0.954373333 23.6391556,1.87176889 L23.6391556,1.87176889 Z" id="Shape"></path>
                    <path d="M19.8279022,26.5171111 L19.1714311,15.1155911 C19.16184,14.8768533 18.3951289,15.1875822 18.3866933,14.9612089 C18.0742311,6.60319111 18.7691822,5.95330667 18.8476444,5.88755556 C18.9400889,5.86167111 19.6983644,5.84121778 19.9252,5.82688889 C20.2321156,5.80759111 20.4965067,5.99502222 20.6373689,6.26819556 C21.1369156,7.23712889 22.8188267,7.23712889 23.3183733,6.26819556 C23.4592356,5.99502222 23.7237422,5.80759111 24.0305422,5.82688889 C24.2574933,5.84110222 25.0156533,5.86167111 25.1080978,5.88755556 C25.18656,5.95330667 25.8815111,6.60319111 25.56928,14.9613244 C25.5608444,15.1876978 24.7941333,14.8768533 24.7845422,15.1157067 L24.1273778,26.5172267" id="Shape"></path>
                    <path d="M14.3947111,1.87176889 C14.3947111,2.78928 13.6509956,4.07044444 12.7334844,4.07044444 C11.8159733,4.07044444 11.0721422,2.78928 11.0721422,1.87176889 C11.0721422,0.954257778 11.8158578,0.210542222 12.7333689,0.210542222 C13.65088,0.210542222 14.3947111,0.954373333 14.3947111,1.87176889 L14.3947111,1.87176889 Z" id="Shape"></path>
                    <path d="M10.5834578,26.5171111 L9.92698667,15.1155911 C9.91739556,14.8768533 9.15068444,15.1875822 9.14224889,14.9612089 C8.82978667,6.60319111 9.52473778,5.95330667 9.6032,5.88755556 C9.69564444,5.86167111 10.45392,5.84121778 10.6807556,5.82688889 C10.9876711,5.80759111 11.2520622,5.99502222 11.3929244,6.26819556 C11.8924711,7.23712889 13.5743822,7.23712889 14.0739289,6.26819556 C14.2147911,5.99502222 14.4792978,5.80759111 14.7860978,5.82688889 C15.0130489,5.84110222 15.7712089,5.86167111 15.8636533,5.88755556 C15.9421156,5.95330667 16.6370667,6.60319111 16.3248356,14.9613244 C16.3164,15.1876978 15.5496889,14.8768533 15.5400978,15.1157067 L14.8829333,26.5172267" id="Shape"></path>
                    <path d="M5.39471111,1.87176889 C5.39471111,2.78928 4.65099556,4.07044444 3.73348444,4.07044444 C2.81597333,4.07044444 2.07214222,2.78928 2.07214222,1.87176889 C2.07214222,0.954257778 2.81585778,0.210542222 3.73336889,0.210542222 C4.65088,0.210542222 5.39471111,0.954373333 5.39471111,1.87176889 L5.39471111,1.87176889 Z" id="Shape"></path>
                    <path d="M1.58345778,26.5171111 L0.926986667,15.1155911 C0.917395556,14.8768533 0.150684444,15.1875822 0.142248889,14.9612089 C-0.170213333,6.60319111 0.524737778,5.95330667 0.6032,5.88755556 C0.695644444,5.86167111 1.45392,5.84121778 1.68075556,5.82688889 C1.98767111,5.80759111 2.25206222,5.99502222 2.39292444,6.26819556 C2.89247111,7.23712889 4.57438222,7.23712889 5.07392889,6.26819556 C5.21479111,5.99502222 5.47929778,5.80759111 5.78609778,5.82688889 C6.01304889,5.84110222 6.77120889,5.86167111 6.86365333,5.88755556 C6.94211556,5.95330667 7.63706667,6.60319111 7.32483556,14.9613244 C7.3164,15.1876978 6.54968889,14.8768533 6.54009778,15.1157067 L5.88293333,26.5172267" id="Shape"></path>
                    <path d="M32.8836,1.87176889 C32.8836,2.78928 32.1398844,4.07044444 31.2223733,4.07044444 C30.3048622,4.07044444 29.5610311,2.78928 29.5610311,1.87176889 C29.5610311,0.954257778 30.3047467,0.210542222 31.2222578,0.210542222 C32.1397689,0.210542222 32.8836,0.954373333 32.8836,1.87176889 L32.8836,1.87176889 Z" id="Shape"></path>
                    <path d="M29.0723467,26.5171111 L28.4158756,15.1155911 C28.4062844,14.8768533 27.6395733,15.1875822 27.6311378,14.9612089 C27.3186756,6.60319111 28.0136267,5.95330667 28.0920889,5.88755556 C28.1845333,5.86167111 28.9428089,5.84121778 29.1696444,5.82688889 C29.47656,5.80759111 29.7409511,5.99502222 29.8818133,6.26819556 C30.38136,7.23712889 32.0632711,7.23712889 32.5628178,6.26819556 C32.70368,5.99502222 32.9681867,5.80759111 33.2749867,5.82688889 C33.5019378,5.84110222 34.2600978,5.86167111 34.3525422,5.88755556 C34.4310044,5.95330667 35.1259556,6.60319111 34.8137244,14.9613244 C34.8052889,15.1876978 34.0385778,14.8768533 34.0289867,15.1157067 L33.3718222,26.5172267" id="Shape"></path>
                    <path d="M42.3947111,1.87176889 C42.3947111,2.78928 41.6509956,4.07044444 40.7334844,4.07044444 C39.8159733,4.07044444 39.0721422,2.78928 39.0721422,1.87176889 C39.0721422,0.954257778 39.8158578,0.210542222 40.7333689,0.210542222 C41.65088,0.210542222 42.3947111,0.954373333 42.3947111,1.87176889 L42.3947111,1.87176889 Z" id="Shape"></path>
                    <path d="M38.5834578,26.5171111 L37.9269867,15.1155911 C37.9173956,14.8768533 37.1506844,15.1875822 37.1422489,14.9612089 C36.8297867,6.60319111 37.5247378,5.95330667 37.6032,5.88755556 C37.6956444,5.86167111 38.45392,5.84121778 38.6807556,5.82688889 C38.9876711,5.80759111 39.2520622,5.99502222 39.3929244,6.26819556 C39.8924711,7.23712889 41.5743822,7.23712889 42.0739289,6.26819556 C42.2147911,5.99502222 42.4792978,5.80759111 42.7860978,5.82688889 C43.0130489,5.84110222 43.7712089,5.86167111 43.8636533,5.88755556 C43.9421156,5.95330667 44.6370667,6.60319111 44.3248356,14.9613244 C44.3164,15.1876978 43.5496889,14.8768533 43.5400978,15.1157067 L42.8829333,26.5172267" id="Shape"></path>
                </g>
            </g>
        </g>
    </g>
</svg>