<?xml version="1.0" encoding="utf-8"?>
<!-- Generator: Adobe Illustrator 19.2.1, SVG Export Plug-In . SVG Version: 6.00 Build 0)  -->
<svg version="1.1" id="Layer_1" xmlns="http://www.w3.org/2000/svg" xmlns:xlink="http://www.w3.org/1999/xlink" x="0px" y="0px"
	 viewBox="0 0 120 140" style="enable-background:new 0 0 120 140;" xml:space="preserve">
<style type="text/css">
	.st0{fill:none;stroke:#1168F4;stroke-width:3.5;stroke-linecap:round;stroke-miterlimit:10;}
	.st1{fill:#FFFFFF;}
	.st2{fill:#1168F4;}
</style>
<ellipse id="ring-inner" class="st0" cx="60.2" cy="110.8" rx="18.8" ry="5.6"/>
<ellipse id="ring-outer" class="st0" cx="60.2" cy="110.8" rx="40.1" ry="15.2"/>
<title>icon-large-location</title>
<desc>Created with Sketch.</desc>
<g id="pin">
	<polygon class="st1" points="33.7,88.2 60,114 90.6,84 	"/>
	<path class="st2" d="M89.1,21.8l-0.2-0.2C81.2,13.8,70.9,9.5,60,9.5c-10.8,0-21.2,4.3-28.8,12.1L31,21.8c-15.9,16-15.9,42.1,0,58.2
		l29,28.4l29-28.5C104.9,63.8,104.9,37.8,89.1,21.8z M86.2,77L60,102.5L33.9,77c-14.3-14.5-14.3-37.9,0-52.4l0.2-0.2
		c6.9-7,16.2-10.9,25.9-10.9s19.1,3.9,25.9,10.9l0.2,0.2C100.5,39,100.5,62.5,86.2,77z"/>
	<path class="st2" d="M60.3,62.9c6.8,0,12.3-5.5,12.3-12.4s-5.5-12.4-12.3-12.4S48,43.6,48,50.5S53.5,62.9,60.3,62.9z M60.3,42.3
		c4.5,0,8.2,3.7,8.2,8.2s-3.7,8.2-8.2,8.2s-8.2-3.7-8.2-8.2S55.8,42.3,60.3,42.3z"/>
</g>
</svg>
