<svg id="Layer_1" xmlns="http://www.w3.org/2000/svg" viewBox="0 0 120 140"><style>.st0{fill:none;stroke:#1168f4;stroke-width:3.5;stroke-linecap:round;stroke-miterlimit:10}.st1{fill:#fff}.st2{fill:#1168f4}</style><ellipse id="ring-inner" class="st0" cx="60.2" cy="110.8" rx="18.8" ry="5.6"/><ellipse id="ring-outer" class="st0" cx="60.2" cy="110.8" rx="40.1" ry="15.2"/><title>icon-large-location</title><g id="pin"><path class="st1" d="M33.7 88.2L60 114l30.6-30z"/><path class="st2" d="M89.1 21.8l-.2-.2C81.2 13.8 70.9 9.5 60 9.5c-10.8 0-21.2 4.3-28.8 12.1l-.2.2c-15.9 16-15.9 42.1 0 58.2l29 28.4 29-28.5c15.9-16.1 15.9-42.1.1-58.1zM86.2 77L60 102.5 33.9 77c-14.3-14.5-14.3-37.9 0-52.4l.2-.2c6.9-7 16.2-10.9 25.9-10.9s19.1 3.9 25.9 10.9l.2.2c14.4 14.4 14.4 37.9.1 52.4z"/><path class="st2" d="M60.3 62.9c6.8 0 12.3-5.5 12.3-12.4s-5.5-12.4-12.3-12.4S48 43.6 48 50.5s5.5 12.4 12.3 12.4zm0-20.6c4.5 0 8.2 3.7 8.2 8.2s-3.7 8.2-8.2 8.2-8.2-3.7-8.2-8.2 3.7-8.2 8.2-8.2z"/></g></svg>