<?xml version="1.0" encoding="UTF-8" standalone="no"?>
<svg width="120px" height="120px" viewBox="0 0 120 120" version="1.1" xmlns="http://www.w3.org/2000/svg" xmlns:xlink="http://www.w3.org/1999/xlink">
    <!-- Generator: Sketch 3.7.2 (28276) - http://www.bohemiancoding.com/sketch -->
    <title>icon-large-train</title>
    <desc>Created with Sketch.</desc>
    <defs></defs>
    <g id="Page-1" stroke="none" stroke-width="1" fill="none" fill-rule="evenodd">
        <g id="icon-large-train" fill="#1168F4">
            <g id="Train" transform="translate(26.000000, 22.000000)">
                <path d="M68.8626182,61.3167399 L62.1309109,13.3930037 C61.0425798,5.68913019 54.4913413,-0.025981449 46.7784968,-1.22570587e-13 L22.5306122,-1.22570587e-13 C14.8177677,-0.025981449 8.26652925,5.68913019 7.17819811,13.3930037 L0.309109009,61.3167399 C-0.227664155,65.0925936 0.898075337,68.9165383 3.39075164,71.7845533 C5.88342793,74.6525683 9.4940161,76.2781314 13.2745147,76.2344322 L56.0345943,76.2344322 C59.7911808,76.2376032 63.3639573,74.5945846 65.8257667,71.7317497 C68.287576,68.8689148 69.3957162,65.0685015 68.8626182,61.3167399 L68.8626182,61.3167399 Z M63.2299652,69.4599634 C61.4210236,71.5641249 58.7953487,72.7717152 56.0345943,72.7692308 L13.2745147,72.7692308 C10.5145541,72.7667645 7.89117603,71.5573221 6.08284056,69.4536904 C4.2745051,67.3500587 3.45880231,64.5588278 3.8466899,61.8018681 L10.6127427,13.8608059 C11.4665652,7.89254683 16.5366807,3.46365368 22.5134395,3.46520147 L46.7784968,3.46520147 C52.7617739,3.45502935 57.8416198,7.88602833 58.6963664,13.8608059 L65.5654555,61.7845421 C65.9358736,64.5644073 65.0825909,67.3686595 63.2299652,69.4599634 L63.2299652,69.4599634 Z" id="Shape"></path>
                <path d="M44.288452,6.93040293 L25.020657,6.93040293 C20.8234889,6.93235237 17.2428399,9.99537673 16.5545047,14.172674 L13.7381782,31.1868132 L55.5709308,31.1868132 L52.7546043,14.172674 C52.0662691,9.99537673 48.4856201,6.93235237 44.288452,6.93040293 L44.288452,6.93040293 Z M17.7909408,27.7216117 L19.9375311,14.7444322 C20.3532896,12.2093048 22.5427141,10.3611354 25.0893479,10.3956044 L44.288452,10.3956044 C46.8350858,10.3611354 49.0245103,12.2093048 49.4402688,14.7444322 L51.5181682,27.7216117 L17.7909408,27.7216117 L17.7909408,27.7216117 Z" id="Shape"></path>
                <path d="M34.6545545,45.047619 C29.9124381,45.047619 26.0681931,48.9261779 26.0681931,53.7106227 C26.0681931,58.4950675 29.9124381,62.3736264 34.6545545,62.3736264 C39.3966709,62.3736264 43.2409159,58.4950675 43.2409159,53.7106227 C43.2409159,48.9261779 39.3966709,45.047619 34.6545545,45.047619 L34.6545545,45.047619 Z M34.6545545,58.9084249 C31.8092846,58.9084249 29.5027377,56.5812896 29.5027377,53.7106227 C29.5027377,50.8399558 31.8092846,48.5128205 34.6545545,48.5128205 C37.4998244,48.5128205 39.8063713,50.8399558 39.8063713,53.7106227 C39.8063713,56.5812896 37.4998244,58.9084249 34.6545545,58.9084249 L34.6545545,58.9084249 Z" id="Shape"></path>
                <rect id="Rectangle-path" x="19.199104" y="79.6996337" width="30.9109009" height="3.46520147"></rect>
            </g>
        </g>
    </g>
</svg>