<svg width="40" height="40" viewBox="0 0 40 40" xmlns="http://www.w3.org/2000/svg"><title>icon-small-staff</title><g fill="none" fill-rule="evenodd"><g stroke="#1168F4" stroke-width="2"><path d="M25.949 24.602v-.872a.442.442 0 0 0-.28-.413c-1.98-.765-4.178-1.715-4.362-2.306v-.621c.41-.42.734-1.006.926-1.692.457-.321.577-.987.194-1.46v-1.39c0-1.434-.8-2.416-2.626-2.416-1.78 0-2.627.982-2.627 2.417v1.39a1.007 1.007 0 0 0 .194 1.459c.192.686.516 1.272.927 1.692v.62c-.184.592-2.383 1.542-4.362 2.307a.442.442 0 0 0-.28.413v.872M21.372 3.7H18.23c-.547 0-1.13.54-1.049 1.193l.627 4.959c.063.5.514.849 1.05.849h1.888c.535 0 .986-.335 1.049-.836l.627-4.994c.082-.647-.521-1.17-1.049-1.17z"/><path d="M14.2 9.3h-2.299c-1.379 0-2.6 1.051-2.6 2.43v21.895c0 1.379 1.221 2.276 2.6 2.276h15.8c1.378 0 2.6-.898 2.6-2.276V11.73c0-1.379-1.222-2.43-2.6-2.43h-2.3M20.653 31.7h5.296M13.653 31.7h2.8M9.3 27.5h21"/></g><path d="M3.001 3.001h33.6v33.6h-33.6z"/></g></svg>