<?xml version="1.0" encoding="UTF-8" standalone="no"?>
<svg width="40px" height="40px" viewBox="0 0 40 40" version="1.1" xmlns="http://www.w3.org/2000/svg" xmlns:xlink="http://www.w3.org/1999/xlink">
    <!-- Generator: Sketch 3.7.2 (28276) - http://www.bohemiancoding.com/sketch -->
    <title>icon-small-clean</title>
    <desc>Created with Sketch.</desc>
    <defs></defs>
    <g id="Page-1" stroke="none" stroke-width="1" fill="none" fill-rule="evenodd">
        <g id="icon-small-clean">
            <g id="thin-0975_cleaning_spray_gun-copy" transform="translate(0.000000, 3.000000)">
                <g id="Group" transform="translate(3.661538, 0.871795)" stroke="#1168F4" stroke-width="2">
                    <path d="M21.1521149,11.0348308 C21.1521149,11.0348308 24.6186503,16.16768 24.86624,23.8082297 C25.0113067,28.2866051 24.6704,30.0792944 24.3490215,30.9527631 C24.1036636,31.6197908 23.4529559,32.0501087 22.7422687,32.0501087 L16.5423426,32.0501087 C15.7203446,32.0501087 15.0099364,31.4727713 14.851479,30.6661169 C14.3270072,27.9971692 14.2371774,22.5461497 16.9426708,18.5022769 C20.0936862,13.7926318 18.5015795,11.0348308 18.5015795,11.0348308" id="Shape"></path>
                    <path d="M21.1521149,8.26461538 C21.1521149,8.26461538 21.6223262,6.10828308 23.2052267,5.05306256 C24.3314462,4.30220308 22.2875405,2.71456 19.0340021,2.71721026 C15.9044677,2.71972103 13.4861785,2.71456 13.4861785,2.71456 L13.4861785,5.42856205 C13.4861785,5.42856205 17.26656,5.92890256 18.501719,8.26475487 L21.1521149,8.26475487 L21.1521149,8.26461538 Z" id="Shape"></path>
                    <polyline id="Shape" points="11.2990195 3.27780923 10.3339077 3.44086974 10.3339077 4.70211282 11.2990195 4.86517333"></polyline>
                    <path d="M16.184279,6.2494441 C16.184279,6.2494441 16.6618831,9.15356718 14.5588349,10.8084431" id="Shape"></path>
                    <path d="M15.7411282,20.7980964 L24.5973087,20.7980964" id="Shape"></path>
                    <path d="M24.7342851,29.1673272 L14.6196513,29.1673272" id="Shape"></path>
                    <g transform="translate(0.000000, 3.312821)" id="Shape">
                        <path d="M6.99277128,0.758531282 L6.39646359,1.12064"></path>
                        <path d="M3.98626462,2.58358154 L2.17865026,3.68078769" stroke-dasharray="0.2526499927043915,1.010650038719177"></path>
                        <path d="M0.973620513,4.41225846 L0.377452308,4.77436718"></path>
                    </g>
                    <g transform="translate(0.000000, 3.312821)" id="Shape">
                        <path d="M6.99277128,0.758531282 L6.29533538,0.758531282"></path>
                        <path d="M0.877095385,0.758531282 L0.179659487,0.758531282"></path>
                    </g>
                    <g id="Shape">
                        <path d="M6.99277128,4.07135179 L6.39646359,3.70966154"></path>
                        <path d="M3.98626462,2.24658051 L2.17865026,1.14937436" stroke-dasharray="0.2526499927043915,1.010650038719177"></path>
                        <path d="M0.973620513,0.41790359 L0.377452308,0.055934359"></path>
                    </g>
                </g>
                <rect id="Rectangle-path" x="0.0198071795" y="0.0493784615" width="33.4769231" height="33.4769231"></rect>
            </g>
        </g>
    </g>
</svg>