<?xml version="1.0" encoding="UTF-8" standalone="no"?>
<svg width="40px" height="40px" viewBox="0 0 40 40" version="1.1" xmlns="http://www.w3.org/2000/svg" xmlns:xlink="http://www.w3.org/1999/xlink">
    <!-- Generator: Sketch 3.7.2 (28276) - http://www.bohemiancoding.com/sketch -->
    <title>icon-small-crowd-ok</title>
    <desc>Created with Sketch.</desc>
    <defs></defs>
    <g id="Page-1" stroke="none" stroke-width="1" fill="none" fill-rule="evenodd">
        <g id="icon-small-crowd-ok" stroke="#1168F4" stroke-width="2">
            <g id="Group" transform="translate(7.000000, 7.000000)">
                <path d="M14.6391556,1.87176889 C14.6391556,2.78928 13.89544,4.07044444 12.9779289,4.07044444 C12.0604178,4.07044444 11.3165867,2.78928 11.3165867,1.87176889 C11.3165867,0.954257778 12.0603022,0.210542222 12.9778133,0.210542222 C13.8953244,0.210542222 14.6391556,0.954373333 14.6391556,1.87176889 L14.6391556,1.87176889 Z" id="Shape"></path>
                <path d="M10.8279022,26.5171111 L10.1714311,15.1155911 C10.16184,14.8768533 9.39512889,15.1875822 9.38669333,14.9612089 C9.07423111,6.60319111 9.76918222,5.95330667 9.84764444,5.88755556 C9.94008889,5.86167111 10.6983644,5.84121778 10.9252,5.82688889 C11.2321156,5.80759111 11.4965067,5.99502222 11.6373689,6.26819556 C12.1369156,7.23712889 13.8188267,7.23712889 14.3183733,6.26819556 C14.4592356,5.99502222 14.7237422,5.80759111 15.0305422,5.82688889 C15.2574933,5.84110222 16.0156533,5.86167111 16.1080978,5.88755556 C16.18656,5.95330667 16.8815111,6.60319111 16.56928,14.9613244 C16.5608444,15.1876978 15.7941333,14.8768533 15.7845422,15.1157067 L15.1273778,26.5172267" id="Shape"></path>
                <path d="M5.39471111,1.87176889 C5.39471111,2.78928 4.65099556,4.07044444 3.73348444,4.07044444 C2.81597333,4.07044444 2.07214222,2.78928 2.07214222,1.87176889 C2.07214222,0.954257778 2.81585778,0.210542222 3.73336889,0.210542222 C4.65088,0.210542222 5.39471111,0.954373333 5.39471111,1.87176889 L5.39471111,1.87176889 Z" id="Shape"></path>
                <path d="M1.58345778,26.5171111 L0.926986667,15.1155911 C0.917395556,14.8768533 0.150684444,15.1875822 0.142248889,14.9612089 C-0.170213333,6.60319111 0.524737778,5.95330667 0.6032,5.88755556 C0.695644444,5.86167111 1.45392,5.84121778 1.68075556,5.82688889 C1.98767111,5.80759111 2.25206222,5.99502222 2.39292444,6.26819556 C2.89247111,7.23712889 4.57438222,7.23712889 5.07392889,6.26819556 C5.21479111,5.99502222 5.47929778,5.80759111 5.78609778,5.82688889 C6.01304889,5.84110222 6.77120889,5.86167111 6.86365333,5.88755556 C6.94211556,5.95330667 7.63706667,6.60319111 7.32483556,14.9613244 C7.3164,15.1876978 6.54968889,14.8768533 6.54009778,15.1157067 L5.88293333,26.5172267" id="Shape"></path>
                <path d="M23.8836,1.87176889 C23.8836,2.78928 23.1398844,4.07044444 22.2223733,4.07044444 C21.3048622,4.07044444 20.5610311,2.78928 20.5610311,1.87176889 C20.5610311,0.954257778 21.3047467,0.210542222 22.2222578,0.210542222 C23.1397689,0.210542222 23.8836,0.954373333 23.8836,1.87176889 L23.8836,1.87176889 Z" id="Shape"></path>
                <path d="M20.0723467,26.5171111 L19.4158756,15.1155911 C19.4062844,14.8768533 18.6395733,15.1875822 18.6311378,14.9612089 C18.3186756,6.60319111 19.0136267,5.95330667 19.0920889,5.88755556 C19.1845333,5.86167111 19.9428089,5.84121778 20.1696444,5.82688889 C20.47656,5.80759111 20.7409511,5.99502222 20.8818133,6.26819556 C21.38136,7.23712889 23.0632711,7.23712889 23.5628178,6.26819556 C23.70368,5.99502222 23.9681867,5.80759111 24.2749867,5.82688889 C24.5019378,5.84110222 25.2600978,5.86167111 25.3525422,5.88755556 C25.4310044,5.95330667 26.1259556,6.60319111 25.8137244,14.9613244 C25.8052889,15.1876978 25.0385778,14.8768533 25.0289867,15.1157067 L24.3718222,26.5172267" id="Shape"></path>
            </g>
        </g>
    </g>
</svg>