<?xml version="1.0" encoding="UTF-8" standalone="no"?>
<svg width="40px" height="40px" viewBox="0 0 40 40" version="1.1" xmlns="http://www.w3.org/2000/svg" xmlns:xlink="http://www.w3.org/1999/xlink">
    <!-- Generator: Sketch 3.7.2 (28276) - http://www.bohemiancoding.com/sketch -->
    <title>icon-small-staff</title>
    <desc>Created with Sketch.</desc>
    <defs></defs>
    <g id="Page-1" stroke="none" stroke-width="1" fill="none" fill-rule="evenodd">
        <g id="icon-small-staff">
            <g id="thin-0721_identity_card_photo_tag_user_profile" transform="translate(3.000000, 3.000000)">
                <g id="Group" transform="translate(5.600000, 0.000000)" stroke="#1168F4" stroke-width="2">
                    <path d="M17.3488,21.60172 L17.3488,20.73036 C17.3488,20.54696 17.23708,20.38232 17.06838,20.31736 C15.08878,19.5524 12.89134,18.6025 12.70668,18.01058 L12.70668,17.38968 C13.1173,16.96954 13.44126,16.38378 13.63292,15.69778 C14.09002,15.37676 14.21014,14.7105 13.82682,14.23884 L13.82682,12.84878 C13.82682,11.41378 13.0277,10.43154 11.20098,10.43154 C9.4213,10.43154 8.57416,11.41378 8.57416,12.84878 L8.57416,14.23926 C8.1921,14.70952 8.31082,15.37564 8.76806,15.6975 C8.95972,16.38364 9.28382,16.96954 9.69472,17.38968 L9.69472,18.01058 C9.51062,18.6018 7.31248,19.55184 5.33302,20.31736 C5.16432,20.38288 5.0526,20.54696 5.0526,20.73036 L5.0526,21.60172" id="Shape"></path>
                    <path d="M12.7722,0.70056 L9.6292,0.70056 C9.08236,0.70056 8.49828,1.24082 8.58018,1.89252 L9.2071,6.8516 C9.26982,7.35238 9.7209,7.70056 10.25612,7.70056 L12.145,7.70056 C12.68022,7.70056 13.1313,7.36582 13.19402,6.8649 L13.82136,1.87138 C13.90284,1.22388 13.29972,0.70056 12.7722,0.70056 L12.7722,0.70056 Z" id="Shape"></path>
                    <path d="M5.6007,6.30056 L3.30106,6.30056 C1.9222,6.30056 0.7007,7.35126 0.7007,8.73012 L0.7007,30.62472 C0.7007,32.00358 1.92206,32.90056 3.30106,32.90056 L19.10048,32.90056 C20.47934,32.90056 21.70084,32.00344 21.70084,30.62472 L21.70084,8.73012 C21.70084,7.35126 20.47948,6.30056 19.10048,6.30056 L16.80084,6.30056" id="Shape"></path>
                    <path d="M12.0526,28.70056 L17.3488,28.70056" id="Shape"></path>
                    <path d="M5.0526,28.70056 L7.8526,28.70056" id="Shape"></path>
                    <path d="M0.7007,24.50056 L21.7007,24.50056" id="Shape"></path>
                    <path id="Shape"></path>
                </g>
                <rect id="Rectangle-path" x="0.0007" y="0.00056" width="33.6" height="33.6"></rect>
            </g>
        </g>
    </g>
</svg>